<?xml version="1.0" encoding="UTF-8"?>
<svg width="1318px" height="1318px" viewBox="0 0 1318 1318" version="1.1" xmlns="http://www.w3.org/2000/svg" xmlns:xlink="http://www.w3.org/1999/xlink">
    <!-- Generator: Sketch 49.2 (51160) - http://www.bohemiancoding.com/sketch -->
    <title>Loki - Invert</title>
    <desc>Created with Sketch.</desc>
    <defs></defs>
    <g id="Page-1" stroke="none" stroke-width="1" fill="none" fill-rule="evenodd">
        <g id="Loki---Invert">
            <rect id="Rectangle" fill="#000000" x="0" y="0" width="1318" height="1318"></rect>
            <g id="noun_Deer-horns_649252_000000" transform="translate(159.000000, 59.000000)" fill="#FFFFFF" fill-rule="nonzero">
                <path d="M441.6,390.4 C431.6,380 420,372.2 407.4,367 C404.8,364.8 402.2,362.6 399.6,360.4 C398.6,359.6 397.8,358.8 396.8,358.2 C386.6,343.8 376.8,329 371.2,312 C367,298.6 366.8,285.4 369.2,271.8 C371.8,257.6 376.2,242.6 384.8,231 C388.6,226 382.6,220.2 378,224.2 C365.6,234.4 358.4,248.2 352.8,262.8 C348.4,273.4 345.8,283.6 345.6,294.4 C342.8,291.2 340.4,288 337.8,285 C324.2,267.8 315.8,249.2 316,227 C316.4,206.4 324.6,182.8 337.4,166.6 C341.2,162 334.8,155.4 330.6,160.2 C315.2,178.2 302.4,196.8 297.2,220.2 C291.8,245 297.8,268.4 311.2,289.4 C318,300.2 326.4,310.2 334.2,320.6 C341.6,330.6 347.4,341.6 355,351.4 C356,352.2 356.6,353.2 357.2,354.2 C352.6,353.4 347.4,352.8 342.4,352.6 C332.8,352 323.2,352.4 313.4,353.4 C299.2,344.4 280,346.2 266.4,335.6 C251,323.8 241,303.2 239.4,283.8 C239.2,278 229.6,278 230,284.2 C232,307.4 232,332 248.4,350.6 C251.8,354.4 255.6,357.6 260.4,360.4 C242.2,362.2 204.8,355 189.4,343.6 C179.8,336.6 175.2,325 171.8,313.8 C164.6,288.6 172.8,259.8 182.4,236.2 C184.2,231.8 176.8,229 174.8,233 C162,260 152.2,289.6 154.6,319.8 C155.4,325.8 156.6,331.8 158.8,337.4 C156.2,335.8 154,334.2 151.6,332.6 C135.2,320 121.2,304.4 111,286.6 C100.4,268.6 91.8,249.4 81.6,231.4 C79,226.4 71.8,229.8 73,235 C78,254.6 82.4,274.2 90.8,292.8 C99,312 109.8,328.4 124.8,343 C154.2,372 197,387.4 237.8,390.4 C261.4,392 284.8,385.8 307.8,382 C338.6,377.2 367.6,388.6 371.8,390.6 C382,398 390.2,407.8 398.8,417 C407.4,426.6 419,439.2 432.6,441.2 C445.8,443 458.6,434.2 458.6,420.2 C458.6,408.6 449,398 441.6,390.4 Z" id="Shape"></path>
                <path d="M558.4,390.4 C568.2,380 579.8,372.2 592.6,367 C595.2,364.8 597.8,362.6 600.4,360.4 C601.4,359.6 602.2,358.8 603.2,358 C613.4,343.6 623.2,328.8 628.6,311.8 C633.2,298.4 633.2,285.4 631,271.6 C628.2,257.6 623.8,242.4 615,231 C611.4,226 617.2,220.2 621.8,224.2 C634.2,234.4 641.6,248.2 647.2,262.8 C651.4,273.4 654,283.6 654.4,294.4 C657.2,291.2 659.8,288 662.2,285 C675.6,267.8 684.2,249.2 684,227 C683.8,206.4 675.4,183 662.4,166.6 C658.8,162 665.2,155.4 669.2,160.2 C684.8,178.2 697.6,196.8 702.8,220.2 C708,245 702.2,268.4 688.8,289.4 C682,300.2 673.4,310.2 665.8,320.6 C658.4,330.6 652.4,341.6 644.8,351.4 C644,352.2 643.4,353.2 642.8,354.2 C647.6,353.4 652.4,352.8 657.4,352.6 C667.2,352 676.8,352.4 686.6,353.4 C700.8,344.4 719.8,346.4 733.6,335.6 C748.8,323.8 758.8,303.2 760.6,284 C760.8,278 770.4,278 770,284.2 C768,307.4 768,332 751.6,350.6 C748.2,354.4 744.2,357.6 739.4,360.4 C757.8,362 795,355 810.4,343.6 C820,336.6 824.8,325 828.2,313.8 C835.4,288.6 827.2,259.8 817.6,236.2 C815.8,231.8 823,229 825.2,233.2 C838,260 847.8,289.6 845.2,319.8 C844.6,325.8 843.4,331.8 841.2,337.4 C843.6,335.8 846,334.2 848.2,332.6 C864.6,320 878.6,304.6 889,286.6 C899.6,268.6 908,249.4 918.2,231.4 C921,226.6 928,230 926.6,235.2 C922,254.6 917.6,274.2 909.2,292.8 C901,312 890.2,328.4 875.2,343 C845.6,372 802.8,387.4 762.2,390.4 C738.6,392 715,385.8 692.2,382 C661.4,377.2 632.4,388.6 628.2,390.6 C618,398 609.6,407.8 601.2,417 C592.6,426.6 581,439.2 567.4,441.2 C554.2,443 541.4,434.2 541.4,420.2 C541.2,408.6 551,398 558.4,390.4 Z" id="Shape"></path>
            </g>
            <path d="M228.765,525.06 L259.245,525.06 L259.245,784.14 L404.025,784.14 L404.025,814.62 L228.765,814.62 L228.765,525.06 Z M424.063512,669.84 C424.063512,592.116 486.547512,525.441 558.175512,525.06 C629.581758,525.06 690.765,592.459421 690.765,669.126741 C690.765,746.713447 630.942047,814.621488 558.40173,814.621488 C558.199324,814.621488 557.996918,814.621116 557.794512,814.62 C485.404512,814.62 424.063512,747.564 424.063512,669.84 Z M454.063512,669.36 C454.063512,734.639736 498.67623,783.662604 556.641809,783.662604 C556.865795,783.662604 557.089781,783.66186 557.314512,783.660372 C615.359713,783.660372 659.805744,735.683021 659.805744,670.198274 C659.805744,603.761771 616.469227,555.443977 557.695512,555.06 C499.021512,555.06 454.063512,603.828 454.063512,669.36 Z M808.875683,685.08 L784.245,685.08 L784.245,814.62 L753.765,814.62 L753.765,525.06 L784.245,525.06 L784.245,654.6 L808.875683,654.6 L941.598,529.251 L945.789,525.06 L990.366,525.06 L962.172,551.349 L836.823,669.84 L962.172,788.331 L990.366,814.62 L945.789,814.62 L941.598,810.429 L808.875683,685.08 Z M1054.1535,525.06 L1084.6335,525.06 L1084.6335,814.62 L1054.1535,814.62 L1054.1535,525.06 Z" id="LOKI" fill="#FFFFFF"></path>
            <path d="M242.54,902.026 L296.462172,902.026 C296.462172,889.156 285.022172,876.143 269.292172,876 C255.357632,876 244.737368,886.51441 242.54,902.026 Z M230.98869,912.90614 L230.54,912.906 L230.54,901.466 L230.911186,901.466 C233.580705,880.944383 250.285172,864.13099 269.15,864 C289.885,864 307.76,884.306 307.76,907.186 L307.76,912.906 L242.43288,912.906 C244.769338,927.556937 255.820696,938.990373 267.94623,938.990373 C268.866793,938.990373 269.7935,938.924459 270.723,938.78914 L270.866,938.78914 C287.025,936.64414 291.315,933.06914 294.175,923.77414 L295.319,919.77014 L307.331,919.77014 L305.043,927.20614 C301.325,939.64714 292.03,947.65514 272.296,950.22914 C271.152279,950.378982 270.00814,950.451879 268.867072,950.451879 C251.031174,950.451879 233.944908,932.65173 230.98869,912.90614 Z M336.197,874.07354 C342.409121,867.945767 350.550904,864.067729 359.077,864 C377.238,864 393.54,881.446 393.397,900.751 L393.397,944.509 L393.54,950.372 L382.243,950.372 L382.1,944.652 L381.957,900.751 C381.957,885.879 372.376,875.583 359.077,875.44 C345.778,875.44 336.197,885.879 336.197,900.751 L336.197,950.229 L324.757,950.229 L324.757,864 L336.197,864 L336.197,874.07354 Z M411.611441,907.215 C411.611441,884.478 429.629721,864.31486 450.221721,864.17186 C459.979516,864.17186 469.135705,868.700659 476.080701,875.85052 L475.961721,868.605 L475.818721,862.742 L487.258721,862.742 L487.401721,868.319 L487.887418,898.001415 C488.504943,900.913644 488.832559,903.910499 488.832559,906.947573 C488.832559,909.678817 488.618617,912.296108 488.164201,914.905719 L488.831721,955.692 C488.831721,962.985 482.396721,972.995 477.820721,977.428 C474.177852,981.313718 466.720066,986.539781 456.67292,986.539781 C454.887934,986.539781 453.021393,986.374856 451.079721,986.00814 C440.211721,984.14914 435.349721,982.57614 426.626721,979.00114 L423.051721,977.57114 L423.051721,965.27314 L430.916721,968.41914 C439.353721,971.85114 443.214721,973.13814 453.081721,974.85414 C454.524568,975.102993 455.863797,975.217645 457.109461,975.217645 C463.024131,975.217645 466.834578,972.634428 469.669441,969.563279 L469.669441,969.420279 C473.387441,965.702279 477.391441,959.553279 477.391441,955.692279 L477.096504,937.731954 C470.12665,945.464567 460.667424,950.401838 450.439293,950.401838 C450.366676,950.401838 450.294059,950.401559 450.221441,950.401 C429.486441,950.401 411.611441,930.095 411.611441,907.215 Z M423.051721,907.21486 C423.051721,925.70585 434.653154,938.961978 449.975102,938.961978 C450.057215,938.961978 450.139328,938.961559 450.221721,938.96086 C463.538596,938.96086 474.037365,929.462113 476.723643,915.012829 L476.45077,898.38489 C473.412857,884.746404 463.300076,875.730841 450.221721,875.612 C434.634721,875.612 423.051721,888.76786 423.051721,907.21486 Z M509.137,846.44 L509.137,835 L520.72,835 L520.72,846.44 L509.137,846.44 Z M509.137,864.172 L520.577,864.172 L520.577,950.401 L509.137,950.401 L509.137,864.172 Z M553.466,874.24554 C559.678121,868.117767 567.819904,864.239729 576.346,864.172 C594.507,864.172 610.809,881.618 610.666,900.923 L610.666,944.681 L610.809,950.544 L599.512,950.544 L599.369,944.824 L599.226,900.923 C599.226,886.051 589.645,875.755 576.346,875.612 C563.047,875.612 553.466,886.051 553.466,900.923 L553.466,950.401 L542.026,950.401 L542.026,864.172 L553.466,864.172 L553.466,874.24554 Z M642.256688,901.638 L696.17886,901.638 C696.17886,888.768 684.73886,875.755 669.00886,875.612 C655.07432,875.612 644.454057,886.12641 642.256688,901.638 Z M630.84769,913.078 L630.399,913.07786 L630.399,901.63786 L630.770186,901.63786 C633.439705,881.116243 650.144172,864.302851 669.009,864.17186 C689.744,864.17186 707.619,884.47786 707.619,907.35786 L707.619,913.07786 L642.29188,913.07786 C644.628338,927.728797 655.679696,939.162233 667.80523,939.162233 C668.725793,939.162233 669.6525,939.096319 670.582,938.961 L670.725,938.961 C686.884,936.816 691.174,933.241 694.034,923.946 L695.178,919.942 L707.19,919.942 L704.902,927.378 C701.184,939.819 691.889,947.827 672.155,950.401 C671.011279,950.550843 669.86714,950.623739 668.726072,950.623739 C650.890174,950.623739 633.803908,932.823591 630.84769,913.078 Z M737.636688,901.638 L791.55886,901.638 C791.55886,888.768 780.11886,875.755 764.38886,875.612 C750.45432,875.612 739.834057,886.12641 737.636688,901.638 Z M726.22769,913.078 L725.779,913.07786 L725.779,901.63786 L726.150186,901.63786 C728.819705,881.116243 745.524172,864.302851 764.389,864.17186 C785.124,864.17186 802.999,884.47786 802.999,907.35786 L802.999,913.07786 L737.67188,913.07786 C740.008338,927.728797 751.059696,939.162233 763.18523,939.162233 C764.105793,939.162233 765.0325,939.096319 765.962,938.961 L766.105,938.961 C782.264,936.816 786.554,933.241 789.414,923.946 L790.558,919.942 L802.57,919.942 L800.282,927.378 C796.564,939.819 787.269,947.827 767.535,950.401 C766.391279,950.550843 765.24714,950.623739 764.106072,950.623739 C746.270174,950.623739 729.183908,932.823591 726.22769,913.078 Z M833.385779,877.475329 C841.77879,868.912925 854.056122,864.172 867.705779,864.172 L873.425779,864.172 L873.425779,875.612 L867.705779,875.612 C846.628222,875.612 833.527104,885.687495 833.385779,906.530583 L833.385779,950.401 L821.945345,950.401 L821.945779,944.681 L821.945779,907.215 C821.945779,907.030245 821.944802,906.846049 821.945779,906.662271 L821.945779,869.892 L821.945345,864.172 L833.385779,864.172 L833.385779,877.475329 Z M894.088,846.44 L894.088,835 L905.671,835 L905.671,846.44 L894.088,846.44 Z M894.088,864.172 L905.528,864.172 L905.528,950.401 L894.088,950.401 L894.088,864.172 Z M938.417,874.24554 C944.629121,868.117767 952.770904,864.239729 961.297,864.172 C979.458,864.172 995.76,881.618 995.617,900.923 L995.617,944.681 L995.76,950.544 L984.463,950.544 L984.32,944.824 L984.177,900.923 C984.177,886.051 974.596,875.755 961.297,875.612 C947.998,875.612 938.417,886.051 938.417,900.923 L938.417,950.401 L926.977,950.401 L926.977,864.172 L938.417,864.172 L938.417,874.24554 Z M1008.14,907.473 C1008.14,884.736 1026.15828,864.57286 1046.75028,864.42986 C1056.50807,864.42986 1065.66426,868.958659 1072.60926,876.10852 L1072.49028,868.863 L1072.34728,863 L1083.78728,863 L1083.93028,868.577 L1084.41598,898.259415 C1085.0335,901.171644 1085.36112,904.168499 1085.36112,907.205573 C1085.36112,909.936817 1085.14718,912.554108 1084.69276,915.163719 L1085.36028,955.95 C1085.36028,963.243 1078.92528,973.253 1074.34928,977.686 C1070.70641,981.571718 1063.24862,986.797781 1053.20148,986.797781 C1051.41649,986.797781 1049.54995,986.632856 1047.60828,986.26614 C1036.74028,984.40714 1031.87828,982.83414 1023.15528,979.25914 L1019.58028,977.82914 L1019.58028,965.53114 L1027.44528,968.67714 C1035.88228,972.10914 1039.74328,973.39614 1049.61028,975.11214 C1051.05313,975.360993 1052.39236,975.475645 1053.63802,975.475645 C1059.55269,975.475645 1063.36314,972.892428 1066.198,969.821279 L1066.198,969.678279 C1069.916,965.960279 1073.92,959.811279 1073.92,955.950279 L1073.62506,937.989954 C1066.65521,945.722567 1057.19598,950.659838 1046.96785,950.659838 C1046.89523,950.659838 1046.82262,950.659559 1046.75,950.659 C1026.015,950.659 1008.14,930.353 1008.14,907.473 Z M1020.14,907.60286 C1020.14,926.09385 1031.74143,939.349978 1047.06338,939.349978 C1047.14549,939.349978 1047.22761,939.349559 1047.31,939.34886 C1060.62687,939.34886 1071.12564,929.850113 1073.81192,915.400829 L1073.53905,898.77289 C1070.50114,885.134404 1060.38836,876.118841 1047.31,876 C1031.723,876 1020.14,889.15586 1020.14,907.60286 Z" id="engineering" fill="#FFFFFF"></path>
        </g>
    </g>
</svg>